<svg width="1440" height="1501" viewBox="0 0 1440 1501" fill="none" xmlns="http://www.w3.org/2000/svg">
<g opacity="0.5">
<line x1="1463" y1="61.1737" x2="-23" y2="61.1735" stroke="#F2EEEE"/>
<line x1="1463" y1="136.224" x2="-23" y2="136.224" stroke="#F2EEEE"/>
<line x1="1463" y1="211.275" x2="-23" y2="211.275" stroke="#F2EEEE"/>
<line x1="1463" y1="286.325" x2="-23" y2="286.325" stroke="#F2EEEE"/>
<line x1="1463" y1="361.376" x2="-23" y2="361.376" stroke="#F2EEEE"/>
<line x1="1463" y1="436.427" x2="-23" y2="436.426" stroke="#F2EEEE"/>
<line x1="1463" y1="511.477" x2="-23" y2="511.477" stroke="#F2EEEE"/>
<line x1="1463" y1="586.528" x2="-23" y2="586.528" stroke="#F2EEEE"/>
<line x1="1463" y1="661.578" x2="-23" y2="661.578" stroke="#F2EEEE"/>
<line x1="1463" y1="736.629" x2="-23" y2="736.629" stroke="#F2EEEE"/>
<line x1="1463" y1="811.679" x2="-23" y2="811.679" stroke="#F2EEEE"/>
<line x1="1463" y1="886.73" x2="-23" y2="886.73" stroke="#F2EEEE"/>
<line x1="1463" y1="961.781" x2="-23" y2="961.781" stroke="#F2EEEE"/>
<line x1="1463" y1="1036.83" x2="-23" y2="1036.83" stroke="#F2EEEE"/>
<line x1="1463" y1="1111.88" x2="-23" y2="1111.88" stroke="#F2EEEE"/>
<line x1="1463" y1="1186.93" x2="-23" y2="1186.93" stroke="#F2EEEE"/>
<line x1="1463" y1="1261.98" x2="-23" y2="1261.98" stroke="#F2EEEE"/>
<line x1="1463" y1="1337.03" x2="-23" y2="1337.03" stroke="#F2EEEE"/>
<line x1="1463" y1="1412.08" x2="-23" y2="1412.08" stroke="#F2EEEE"/>
<line x1="1463" y1="1487.13" x2="-23" y2="1487.13" stroke="#F2EEEE"/>
</g>
<g opacity="0.5">
<line x1="7.52051" y1="-100.685" x2="7.52045" y2="1499.31" stroke="#F2EEEE"/>
<line x1="82.5713" y1="-100.685" x2="82.5712" y2="1499.31" stroke="#F2EEEE"/>
<line x1="157.622" y1="-100.685" x2="157.622" y2="1499.31" stroke="#F2EEEE"/>
<line x1="232.672" y1="-100.685" x2="232.672" y2="1499.31" stroke="#F2EEEE"/>
<line x1="307.723" y1="-100.685" x2="307.723" y2="1499.31" stroke="#F2EEEE"/>
<line x1="382.773" y1="-100.685" x2="382.773" y2="1499.31" stroke="#F2EEEE"/>
<line x1="457.824" y1="-100.685" x2="457.824" y2="1499.31" stroke="#F2EEEE"/>
<line x1="532.875" y1="-100.685" x2="532.875" y2="1499.31" stroke="#F2EEEE"/>
<line x1="607.925" y1="-100.685" x2="607.925" y2="1499.31" stroke="#F2EEEE"/>
<line x1="682.976" y1="-100.685" x2="682.976" y2="1499.31" stroke="#F2EEEE"/>
<line x1="758.026" y1="-100.685" x2="758.026" y2="1499.31" stroke="#F2EEEE"/>
<line x1="833.076" y1="-100.685" x2="833.076" y2="1499.31" stroke="#F2EEEE"/>
<line x1="908.127" y1="-100.685" x2="908.127" y2="1499.31" stroke="#F2EEEE"/>
<line x1="983.178" y1="-100.685" x2="983.178" y2="1499.31" stroke="#F2EEEE"/>
<line x1="1058.23" y1="-100.685" x2="1058.23" y2="1499.31" stroke="#F2EEEE"/>
<line x1="1133.28" y1="-100.685" x2="1133.28" y2="1499.31" stroke="#F2EEEE"/>
<line x1="1208.33" y1="-100.685" x2="1208.33" y2="1499.31" stroke="#F2EEEE"/>
<line x1="1283.38" y1="-100.685" x2="1283.38" y2="1499.31" stroke="#F2EEEE"/>
<line x1="1358.43" y1="-100.685" x2="1358.43" y2="1499.31" stroke="#F2EEEE"/>
<line x1="1433.48" y1="-100.685" x2="1433.48" y2="1499.31" stroke="#F2EEEE"/>
</g>
</svg>
